# xmcd
#
# Track frame offsets:
#	182
#	12042
#	25290
#	43837
#	55120
#	70597
#	83160
#	95247
#	108837
#	125140
#
# Disc length: 1855 seconds
#
# Revision: 1
# Processed by: cddbd v1.4PL0 Copyright (c) Steve Scherf et al.
# Submitted via: audiograbber 1.81.03
#
DISCID=7f073d0a
DTITLE=Various Artist - Today's Country Love
DYEAR=1900
DGENRE=Country
TTITLE0=Neal McCoy - You Gotta Love That
TTITLE1=Tracy Lawrence - Can't Break It To My Heart
TTITLE2=John Michael Montgomery - Rope The Moon
TTITLE3=Ricky Skaggs - Solid Ground
TTITLE4=Confederate Railroad - Hunger Pains
TTITLE5=Daryle Singletary - Too Much Fun
TTITLE6=Little Texas - Life Goes On
TTITLE7=David Ball - When The Thought Of You Catches Up With Me
TTITLE8=Carlene Carter - I Love You 'Cause I Want To
TTITLE9=Randy Travis - Whisper My Name
EXTD=
EXTT0=
EXTT1=
EXTT2=
EXTT3=
EXTT4=
EXTT5=
EXTT6=
EXTT7=
EXTT8=
EXTT9=
PLAYORDER=
